<?xml version="1.0" encoding="UTF-8"?>
<svg width="156px" height="87px" viewBox="0 0 156 87" version="1.1" xmlns="http://www.w3.org/2000/svg" xmlns:xlink="http://www.w3.org/1999/xlink">
    <!-- Generator: Sketch 43.2 (39069) - http://www.bohemiancoding.com/sketch -->
    <title>Slice 1</title>
    <desc>Created with Sketch.</desc>
    <defs></defs>
    <g id="Page-1" stroke="none" stroke-width="1" fill="none" fill-rule="evenodd">
        <g id="logo">
            <g id="Group" transform="translate(71.000000, 21.000000)" fill-rule="nonzero" fill="#F1F1F1">
                <ellipse id="Oval" cx="33" cy="19.5" rx="17" ry="16.5"></ellipse>
                <ellipse id="Oval" cx="22" cy="36" rx="22" ry="21"></ellipse>
                <ellipse id="Oval" cx="44" cy="49.5" rx="17" ry="16.5"></ellipse>
                <ellipse id="Oval" cx="67" cy="49.5" rx="17" ry="16.5"></ellipse>
                <ellipse id="Oval" cx="62" cy="22.5" rx="23" ry="22.5"></ellipse>
            </g>
            <g id="Group" transform="translate(0.000000, 13.000000)" fill-rule="nonzero" fill="#F1F1F1">
                <circle id="Oval" cx="15" cy="8" r="8"></circle>
                <circle id="Oval" cx="10" cy="16" r="10"></circle>
                <circle id="Oval" cx="21" cy="22" r="8"></circle>
                <circle id="Oval" cx="26.5" cy="12.5" r="7.5"></circle>
            </g>
            <path d="M24.4335938,4.00390625 C24.4335938,3.61197721 24.4518227,3.22916854 24.4882812,2.85546875 C24.5247398,2.48176896 24.6136061,2.14681138 24.7548828,1.85058594 C24.8961596,1.5543605 25.1035143,1.31510508 25.3769531,1.1328125 C25.650392,0.950519922 26.0286434,0.859375 26.5117188,0.859375 C27.0312526,0.859375 27.4368475,0.950519922 27.7285156,1.1328125 C28.0201838,1.31510508 28.2343743,1.5543605 28.3710938,1.85058594 C28.5078132,2.14681138 28.5921222,2.48176896 28.6240234,2.85546875 C28.6559246,3.22916854 28.671875,3.61197721 28.671875,4.00390625 L28.671875,15.9804688 L31.3515625,15.9804688 C31.7252623,15.9804688 32.0943992,15.9986977 32.4589844,16.0351562 C32.8235695,16.0716148 33.1494126,16.1582024 33.4365234,16.2949219 C33.7236342,16.4316413 33.9537752,16.6321601 34.1269531,16.8964844 C34.3001311,17.1608086 34.3867188,17.5208311 34.3867188,17.9765625 C34.3867188,18.4414086 34.3001311,18.8082669 34.1269531,19.0771484 C33.9537752,19.34603 33.7236342,19.5488274 33.4365234,19.6855469 C33.1494126,19.8222663 32.8235695,19.908854 32.4589844,19.9453125 C32.0943992,19.981771 31.7252623,20 31.3515625,20 L27.46875,20 C26.9856747,20 26.5572935,19.981771 26.1835938,19.9453125 C25.809894,19.908854 25.4931654,19.8222663 25.2333984,19.6855469 C24.9736315,19.5488274 24.7753913,19.34603 24.6386719,19.0771484 C24.5019524,18.8082669 24.4335938,18.4414086 24.4335938,17.9765625 L24.4335938,4.00390625 Z M40.6210938,11.7421875 L44.96875,11.7421875 L42.9453125,4.4140625 L42.6445312,4.4140625 L40.6210938,11.7421875 Z M49.2070312,13.0820312 C49.2252605,13.701826 49.2480467,14.3352832 49.2753906,14.9824219 C49.3027345,15.6295605 49.3164062,16.2539032 49.3164062,16.8554688 L49.3164062,17.265625 C49.3164062,17.6119809 49.3050131,17.9469385 49.2822266,18.2705078 C49.25944,18.5940771 49.1888027,18.8857409 49.0703125,19.1455078 C48.9518223,19.4052747 48.7649752,19.6126294 48.5097656,19.7675781 C48.254556,19.9225268 47.8945336,20 47.4296875,20 C46.9557268,20 46.5911471,19.9225268 46.3359375,19.7675781 C46.0807279,19.6126294 45.8916022,19.4075534 45.7685547,19.1523438 C45.6455072,18.8971341 45.5725913,18.6054704 45.5498047,18.2773438 C45.5270181,17.9492171 45.515625,17.6119809 45.515625,17.265625 L45.515625,15.3515625 L40.046875,15.3515625 L40.046875,17.265625 C40.046875,17.6119809 40.0354819,17.9492171 40.0126953,18.2773438 C39.9899087,18.6054704 39.9169928,18.8971341 39.7939453,19.1523438 C39.6708978,19.4075534 39.4817721,19.6126294 39.2265625,19.7675781 C38.9713529,19.9225268 38.6067732,20 38.1328125,20 C37.6588518,20 37.2942721,19.9225268 37.0390625,19.7675781 C36.7838529,19.6126294 36.5970058,19.4052747 36.4785156,19.1455078 C36.3600254,18.8857409 36.2916668,18.5940771 36.2734375,18.2705078 C36.2552082,17.9469385 36.2460938,17.6119809 36.2460938,17.265625 L36.2460938,16.8554688 C36.2460938,16.5729153 36.2483724,16.272137 36.2529297,15.953125 C36.257487,15.634113 36.2643229,15.3105485 36.2734375,14.9824219 C36.2825521,14.6542952 36.2916666,14.3284521 36.3007812,14.0048828 C36.3098959,13.6813135 36.3190104,13.3736994 36.328125,13.0820312 C36.7838564,11.4960858 37.2623673,9.88965657 37.7636719,8.26269531 C38.2649765,6.63573405 38.7434873,5.02474756 39.1992188,3.4296875 C39.290365,3.09244623 39.3997389,2.76660313 39.5273438,2.45214844 C39.6549486,2.13769374 39.8235667,1.86425897 40.0332031,1.63183594 C40.2428396,1.3994129 40.5117171,1.21256581 40.8398438,1.07128906 C41.1679704,0.930012314 41.587237,0.859375 42.0976562,0.859375 L43.4648438,0.859375 C43.9661483,0.859375 44.3831364,0.930012314 44.7158203,1.07128906 C45.0485043,1.21256581 45.3196604,1.3994129 45.5292969,1.63183594 C45.7389333,1.86425897 45.9052728,2.13769374 46.0283203,2.45214844 C46.1513678,2.76660313 46.2630203,3.09244623 46.3632812,3.4296875 L49.2070312,13.0820312 Z" id="LA" fill="#555555"></path>
            <path d="M42.46875,53.296875 L43.03125,53.296875 L43.03125,33.84375 C43.03125,33.3437475 43.0624997,32.871096 43.125,32.4257812 C43.1875003,31.9804665 43.3242177,31.5937516 43.5351562,31.265625 C43.7460948,30.9374984 44.0585917,30.6757822 44.4726562,30.4804688 C44.8867208,30.2851553 45.4531214,30.1875 46.171875,30.1875 C46.968754,30.1875 47.5976539,30.2851553 48.0585938,30.4804688 C48.5195336,30.6757822 48.8671863,30.9374984 49.1015625,31.265625 C49.3359387,31.5937516 49.4843747,31.9804665 49.546875,32.4257812 C49.6093753,32.871096 49.640625,33.3437475 49.640625,33.84375 L49.640625,57.609375 C49.640625,58.2968784 49.6210939,58.9609343 49.5820312,59.6015625 C49.5429686,60.2421907 49.4179698,60.8164037 49.2070312,61.3242188 C48.9960927,61.8320338 48.6523461,62.2382797 48.1757812,62.5429688 C47.6992164,62.8476578 47.0312543,63 46.171875,63 L43.078125,63 C42.3437463,63 41.7304712,62.8554702 41.2382812,62.5664062 C40.7460913,62.2773423 40.3359391,61.9257833 40.0078125,61.5117188 C39.6796859,61.0976542 39.4179697,60.6640648 39.2226562,60.2109375 C39.0273428,59.7578102 38.8750005,59.3750016 38.765625,59.0625 L31.6875,39.890625 L31.125,39.890625 L31.125,59.34375 C31.125,59.8437525 31.0937503,60.316404 31.03125,60.7617188 C30.9687497,61.2070335 30.8320323,61.5937484 30.6210938,61.921875 C30.4101552,62.2500016 30.0976583,62.5117178 29.6835938,62.7070312 C29.2695292,62.9023447 28.7031286,63 27.984375,63 C27.1718709,63 26.5312523,62.9023447 26.0625,62.7070312 C25.5937477,62.5117178 25.2421887,62.2500016 25.0078125,61.921875 C24.7734363,61.5937484 24.6250003,61.2070335 24.5625,60.7617188 C24.4999997,60.316404 24.46875,59.8437525 24.46875,59.34375 L24.46875,35.578125 C24.46875,34.9062466 24.4882811,34.246097 24.5273438,33.5976562 C24.5664064,32.9492155 24.6953114,32.3710963 24.9140625,31.8632812 C25.1328136,31.3554662 25.4804664,30.9492203 25.9570312,30.6445312 C26.4335961,30.3398422 27.1093706,30.1875 27.984375,30.1875 L31.078125,30.1875 C31.8593789,30.1875 32.4960913,30.3398422 32.9882812,30.6445312 C33.4804712,30.9492203 33.8828109,31.2812482 34.1953125,31.640625 C34.5390642,32.0625021 34.812499,32.5468723 35.015625,33.09375 L42.46875,53.296875 Z M56.203125,35.53125 C56.203125,34.8593716 56.2382809,34.2031282 56.3085938,33.5625 C56.3789066,32.9218718 56.5429675,32.351565 56.8007812,31.8515625 C57.058595,31.35156 57.4453099,30.9492203 57.9609375,30.6445312 C58.4765651,30.3398422 59.1874955,30.1875 60.09375,30.1875 C61.0000045,30.1875 61.7148411,30.3398422 62.2382812,30.6445312 C62.7617214,30.9492203 63.1523425,31.35156 63.4101562,31.8515625 C63.66797,32.351565 63.8281247,32.9218718 63.890625,33.5625 C63.9531253,34.2031282 63.984375,34.8593716 63.984375,35.53125 L63.984375,54 C64.0312502,54.6875034 64.1718738,55.2968723 64.40625,55.828125 C64.5000005,56.0625012 64.6249992,56.2890614 64.78125,56.5078125 C64.9375008,56.7265636 65.1210927,56.9218741 65.3320312,57.09375 C65.5429698,57.2656259 65.7929673,57.4023432 66.0820312,57.5039062 C66.3710952,57.6054693 66.7031231,57.65625 67.078125,57.65625 C67.4531269,57.65625 67.789061,57.6054693 68.0859375,57.5039062 C68.382814,57.4023432 68.6367177,57.2656259 68.8476562,57.09375 C69.0585948,56.9218741 69.2421867,56.7265636 69.3984375,56.5078125 C69.5546883,56.2890614 69.679687,56.0625012 69.7734375,55.828125 C70.0078137,55.2968723 70.1406248,54.6875034 70.171875,54 L70.171875,35.53125 C70.171875,34.8593716 70.2031247,34.2031282 70.265625,33.5625 C70.3281253,32.9218718 70.48828,32.351565 70.7460938,31.8515625 C71.0039075,31.35156 71.3906224,30.9492203 71.90625,30.6445312 C72.4218776,30.3398422 73.1406204,30.1875 74.0625,30.1875 C74.9687545,30.1875 75.6796849,30.3398422 76.1953125,30.6445312 C76.7109401,30.9492203 77.097655,31.35156 77.3554688,31.8515625 C77.6132825,32.351565 77.7773434,32.9218718 77.8476562,33.5625 C77.9179691,34.2031282 77.953125,34.8593716 77.953125,35.53125 L77.953125,53.390625 C77.953125,55.0156331 77.6914089,56.4374939 77.1679688,57.65625 C76.6445286,58.8750061 75.9023486,59.8945271 74.9414062,60.7148438 C73.9804639,61.5351604 72.8320379,62.1523417 71.4960938,62.5664062 C70.1601496,62.9804708 68.687508,63.1875 67.078125,63.1875 C65.4531169,63.1875 63.9765691,62.9726584 62.6484375,62.5429688 C61.3203059,62.1132791 60.1757861,61.4843791 59.2148438,60.65625 C58.2539014,59.8281209 57.5117214,58.8046936 56.9882812,57.5859375 C56.4648411,56.3671814 56.203125,54.9687579 56.203125,53.390625 L56.203125,35.53125 Z M94.359375,30.1875 C95.750007,30.1875 97.0585876,30.3671857 98.2851562,30.7265625 C99.5117249,31.0859393 100.582027,31.6249964 101.496094,32.34375 C102.410161,33.0625036 103.128904,33.9570259 103.652344,35.0273438 C104.175784,36.0976616 104.4375,37.3437429 104.4375,38.765625 C104.4375,39.5000037 104.339845,40.1679657 104.144531,40.7695312 C103.949218,41.3710968 103.69922,41.9140601 103.394531,42.3984375 C103.089842,42.8828149 102.753908,43.3046857 102.386719,43.6640625 C102.019529,44.0234393 101.664064,44.33203 101.320312,44.5898438 C100.976561,44.8476575 100.671876,45.0507805 100.40625,45.1992188 C100.140624,45.347657 99.9531255,45.4374998 99.84375,45.46875 C100.781255,45.7343763 101.570309,46.0742167 102.210938,46.4882812 C102.851566,46.9023458 103.386717,47.3554663 103.816406,47.8476562 C104.246096,48.3398462 104.58203,48.8476536 104.824219,49.3710938 C105.066407,49.8945339 105.246093,50.4023413 105.363281,50.8945312 C105.480469,51.3867212 105.550781,51.8398417 105.574219,52.2539062 C105.597656,52.6679708 105.609375,52.9999988 105.609375,53.25 C105.609375,54.4687561 105.460939,55.5429641 105.164062,56.4726562 C104.867186,57.4023484 104.476565,58.2070279 103.992188,58.8867188 C103.50781,59.5664096 102.953128,60.1445289 102.328125,60.6210938 C101.703122,61.0976586 101.070316,61.4843735 100.429688,61.78125 C98.8984298,62.5000036 97.1718846,62.9062495 95.25,63 L87.5625,63 C86.6718705,63 85.9843774,62.8476578 85.5,62.5429688 C85.0156226,62.2382797 84.6640636,61.8320338 84.4453125,61.3242188 C84.2265614,60.8164037 84.0976564,60.2421907 84.0585938,59.6015625 C84.0195311,58.9609343 84,58.2968784 84,57.609375 L84,35.53125 C84,34.8593716 84.0195311,34.2031282 84.0585938,33.5625 C84.0976564,32.9218718 84.2265614,32.351565 84.4453125,31.8515625 C84.6640636,31.35156 85.0156226,30.9492203 85.5,30.6445312 C85.9843774,30.3398422 86.6718705,30.1875 87.5625,30.1875 L94.359375,30.1875 Z M91.125,48.65625 L91.125,57.46875 L94.546875,57.46875 C95.2812537,57.4374998 95.9374971,57.2656266 96.515625,56.953125 C96.7656262,56.8281244 97.0078113,56.6640635 97.2421875,56.4609375 C97.4765637,56.2578115 97.6874991,56.0039078 97.875,55.6992188 C98.0625009,55.3945297 98.210937,55.0429707 98.3203125,54.6445312 C98.429688,54.2460918 98.484375,53.7812527 98.484375,53.25 C98.484375,52.6718721 98.4257818,52.1679709 98.3085938,51.7382812 C98.1914057,51.3085916 98.0351572,50.9335954 97.8398438,50.6132812 C97.6445303,50.2929671 97.4218762,50.0195324 97.171875,49.7929688 C96.9218738,49.5664051 96.6718762,49.3828132 96.421875,49.2421875 C95.812497,48.9140609 95.1250038,48.7187503 94.359375,48.65625 L91.125,48.65625 Z M91.125,35.71875 L91.125,43.6875 L94.125,43.6875 C94.7968784,43.6562498 95.3984348,43.5000014 95.9296875,43.21875 C96.1484386,43.1093745 96.3671864,42.9609384 96.5859375,42.7734375 C96.8046886,42.5859366 96.9999991,42.3632825 97.171875,42.1054688 C97.3437509,41.847655 97.4804682,41.5390643 97.5820312,41.1796875 C97.6835943,40.8203107 97.734375,40.4062523 97.734375,39.9375 C97.734375,39.4062473 97.679688,38.9414082 97.5703125,38.5429688 C97.460937,38.1445293 97.3164071,37.8007827 97.1367188,37.5117188 C96.9570304,37.2226548 96.7539074,36.9765635 96.5273438,36.7734375 C96.3007801,36.5703115 96.0703137,36.3984382 95.8359375,36.2578125 C95.2734347,35.960936 94.6406285,35.7812503 93.9375,35.71875 L91.125,35.71875 Z M123.046875,30.1875 C123.671878,30.1875 124.304684,30.2109373 124.945312,30.2578125 C125.585941,30.3046877 126.16406,30.4374989 126.679688,30.65625 C127.195315,30.8750011 127.617186,31.207029 127.945312,31.6523438 C128.273439,32.0976585 128.4375,32.718746 128.4375,33.515625 C128.4375,34.312504 128.273439,34.9335915 127.945312,35.3789062 C127.617186,35.824221 127.195315,36.1562489 126.679688,36.375 C126.16406,36.5937511 125.585941,36.7265623 124.945312,36.7734375 C124.304684,36.8203127 123.671878,36.84375 123.046875,36.84375 L117.46875,36.84375 L117.46875,43.21875 L120.421875,43.21875 C121.046878,43.21875 121.675778,43.2382811 122.308594,43.2773438 C122.941409,43.3164064 123.503904,43.4414052 123.996094,43.6523438 C124.488284,43.8632823 124.890623,44.1835916 125.203125,44.6132812 C125.515627,45.0429709 125.671875,45.6406212 125.671875,46.40625 C125.671875,47.1875039 125.515627,47.7890604 125.203125,48.2109375 C124.890623,48.6328146 124.488284,48.9492177 123.996094,49.1601562 C123.503904,49.3710948 122.941409,49.4960936 122.308594,49.5351562 C121.675778,49.5742189 121.046878,49.59375 120.421875,49.59375 L117.46875,49.59375 L117.46875,56.34375 L123.046875,56.34375 C123.671878,56.34375 124.304684,56.3671873 124.945312,56.4140625 C125.585941,56.4609377 126.16406,56.5898427 126.679688,56.8007812 C127.195315,57.0117198 127.617186,57.3398415 127.945312,57.7851562 C128.273439,58.230471 128.4375,58.8437461 128.4375,59.625 C128.4375,60.4375041 128.269533,61.0703102 127.933594,61.5234375 C127.597655,61.9765648 127.171878,62.3124989 126.65625,62.53125 C126.140622,62.7500011 125.562503,62.8828123 124.921875,62.9296875 C124.281247,62.9765627 123.656253,63 123.046875,63 L113.859375,63 C112.984371,63 112.308596,62.8437516 111.832031,62.53125 C111.355466,62.2187484 111.007814,61.8085963 110.789062,61.3007812 C110.570311,60.7929662 110.441406,60.2187532 110.402344,59.578125 C110.363281,58.9374968 110.34375,58.2812534 110.34375,57.609375 L110.34375,35.578125 C110.34375,34.9062466 110.363281,34.2500032 110.402344,33.609375 C110.441406,32.9687468 110.570311,32.3945338 110.789062,31.8867188 C111.007814,31.3789037 111.355466,30.9687516 111.832031,30.65625 C112.308596,30.3437484 112.984371,30.1875 113.859375,30.1875 L123.046875,30.1875 Z" id="NUBE" fill="#555555"></path>
        </g>
    </g>
</svg>